<svg width="156" height="54" viewBox="0 0 156 54" fill="none" xmlns="http://www.w3.org/2000/svg">
<path d="M39.8562 38.9844H35.8722L35.1522 41.9844H30.7362L35.1522 28.3044H40.7922L45.0162 41.9844H40.5762L39.8562 38.9844ZM37.8402 31.2564L36.4242 36.3204H39.2802L37.9362 31.2564H37.8402ZM53.3136 30.7044C53.5216 30.7044 53.7376 30.7284 53.9616 30.7764C54.2016 30.8244 54.3776 30.8804 54.4896 30.9444C54.4896 31.2964 54.4496 31.8804 54.3696 32.6964C54.2896 33.4964 54.2176 34.0644 54.1536 34.4004C53.9936 34.3844 53.6976 34.3764 53.2656 34.3764C52.2576 34.3764 51.3616 34.4324 50.5776 34.5444V41.9844H46.4736V30.9444H49.9056L50.3856 32.7204H50.4096C50.8736 32.1124 51.3696 31.6244 51.8976 31.2564C52.4256 30.8884 52.8976 30.7044 53.3136 30.7044ZM65.3354 41.6484C64.0394 42.0804 62.5914 42.2964 60.9914 42.2964C59.1994 42.2964 57.8554 41.8484 56.9594 40.9524C56.0794 40.0404 55.6394 38.6244 55.6394 36.7044C55.6394 35.7604 55.7674 34.8324 56.0234 33.9204C56.2794 32.9924 56.5514 32.3684 56.8394 32.0484C57.1754 31.6804 57.8314 31.3684 58.8074 31.1124C59.7994 30.8564 60.8234 30.7284 61.8794 30.7284C62.9834 30.7284 64.0954 30.8244 65.2154 31.0164C65.1834 31.4164 65.1274 31.8884 65.0474 32.4324C64.9834 32.9604 64.9114 33.4324 64.8314 33.8484C63.8394 33.7844 62.9034 33.7524 62.0234 33.7524C61.1594 33.7524 60.6074 33.8004 60.3674 33.8964C60.2394 33.9444 60.1194 34.2724 60.0074 34.8804C59.9114 35.4884 59.8634 36.0564 59.8634 36.5844C59.8634 37.2884 59.9594 37.8324 60.1514 38.2164C60.3594 38.5844 60.6794 38.8404 61.1114 38.9844C61.5434 39.1284 62.1274 39.2004 62.8634 39.2004C63.1834 39.2004 63.8874 39.1684 64.9754 39.1044L65.3354 41.6484ZM77.8715 31.6404C78.0155 31.8164 78.1195 32.2564 78.1835 32.9604C78.2635 33.6644 78.3035 34.7364 78.3035 36.1764V41.9844H74.1995V36.2244C74.1995 36.1604 74.1995 35.8484 74.1995 35.2884C74.1995 34.7124 74.1595 34.3604 74.0795 34.2324C74.0315 34.1684 73.9115 34.1204 73.7195 34.0884C73.5435 34.0564 73.3355 34.0404 73.0955 34.0404L72.6875 34.0644C72.2395 34.0804 71.7755 34.1844 71.2955 34.3764V41.9844H67.1915V27.5844L71.2955 27.4164V30.2244C71.2955 31.3764 71.2555 32.1444 71.1755 32.5284L71.1995 32.5524C72.2875 31.3204 73.5915 30.7044 75.1115 30.7044C75.6875 30.7044 76.2235 30.7844 76.7195 30.9444C77.2315 31.1044 77.6155 31.3364 77.8715 31.6404ZM82.8153 29.5764C82.2713 29.5764 81.7993 29.3924 81.3993 29.0244C81.0153 28.6564 80.8233 28.2164 80.8233 27.7044C80.8233 27.1924 81.0153 26.7524 81.3993 26.3844C81.7993 26.0164 82.2713 25.8324 82.8153 25.8324C83.3593 25.8324 83.8233 26.0164 84.2073 26.3844C84.5913 26.7524 84.7833 27.1924 84.7833 27.7044C84.7833 28.2164 84.5913 28.6564 84.2073 29.0244C83.8233 29.3924 83.3593 29.5764 82.8153 29.5764ZM80.7513 30.9444H84.8553V41.9844H80.7513V30.9444ZM104.626 31.7124C104.882 32.0964 105.01 33.5844 105.01 36.1764V41.9844H100.906V36.5844V35.2884C100.906 34.6964 100.85 34.3444 100.738 34.2324C100.61 34.1044 100.338 34.0404 99.9222 34.0404L99.6342 34.0644C99.1382 34.0964 98.6662 34.2084 98.2182 34.4004C98.2342 34.7364 98.2422 35.3284 98.2422 36.1764V41.9844H94.1382V36.5844V35.1444C94.1382 34.6484 94.0822 34.3444 93.9702 34.2324C93.8422 34.1044 93.5702 34.0404 93.1542 34.0404L92.8662 34.0644C92.4182 34.0804 91.9542 34.1844 91.4742 34.3764V41.9844H87.3702V30.9444H90.7062L91.1382 32.7444C91.6662 32.0404 92.2742 31.5284 92.9622 31.2084C93.6502 30.8724 94.3462 30.7044 95.0502 30.7044C95.6422 30.7044 96.2022 30.7924 96.7302 30.9684C97.2742 31.1444 97.6502 31.3924 97.8582 31.7124C97.9542 31.8564 98.0342 32.1204 98.0982 32.5044C98.6102 31.8804 99.1942 31.4244 99.8502 31.1364C100.506 30.8484 101.162 30.7044 101.818 30.7044C102.41 30.7044 102.97 30.7924 103.498 30.9684C104.042 31.1444 104.418 31.3924 104.626 31.7124ZM113.973 41.9844L113.589 40.4724C112.853 41.6724 111.829 42.2724 110.517 42.2724C109.445 42.2724 108.565 41.9764 107.877 41.3844C107.205 40.7764 106.869 39.9284 106.869 38.8404C106.869 38.1684 107.061 37.5844 107.445 37.0884C107.845 36.5764 108.389 36.2164 109.077 36.0084C109.973 35.7524 111.357 35.6084 113.229 35.5764C113.229 34.5204 113.181 33.9604 113.085 33.8964C113.005 33.8324 112.749 33.8004 112.317 33.8004C112.045 33.8004 111.669 33.8164 111.189 33.8484C110.421 33.8804 109.381 33.9684 108.069 34.1124C107.941 33.2484 107.845 32.3204 107.781 31.3284C108.629 31.1524 109.517 31.0084 110.445 30.8964C111.373 30.7684 112.205 30.7044 112.941 30.7044C114.221 30.7044 115.181 30.9204 115.821 31.3524C116.461 31.7684 116.877 32.3204 117.069 33.0084C117.261 33.6964 117.349 34.5684 117.333 35.6244L117.309 39.1524L117.381 41.9844H113.973ZM111.909 39.5844C112.325 39.5844 112.765 39.5044 113.229 39.3444V37.5684H113.037C111.853 37.5684 111.197 37.6324 111.069 37.7604C110.989 37.8404 110.925 37.9604 110.877 38.1204C110.845 38.2804 110.829 38.4324 110.829 38.5764C110.829 38.9604 110.917 39.2244 111.093 39.3684C111.269 39.5124 111.541 39.5844 111.909 39.5844ZM124.754 37.4484C124.754 37.7364 124.762 38.0404 124.778 38.3604C124.794 38.6644 124.842 38.8564 124.922 38.9364C125.034 39.0484 125.426 39.1044 126.098 39.1044L126.914 39.0804C127.058 39.8484 127.13 40.7364 127.13 41.7444C126.826 41.8564 126.378 41.9604 125.786 42.0564C125.21 42.1524 124.658 42.2004 124.13 42.2004C123.026 42.2004 122.17 41.9604 121.562 41.4804C120.97 40.9844 120.674 40.2244 120.674 39.2004V33.2964H118.874V31.1124L120.674 30.9444L121.754 28.3044L124.754 28.1364V30.9444H127.298V33.2964H124.754V37.4484ZM138.294 41.6484C136.998 42.0804 135.55 42.2964 133.95 42.2964C132.158 42.2964 130.814 41.8484 129.918 40.9524C129.038 40.0404 128.598 38.6244 128.598 36.7044C128.598 35.7604 128.726 34.8324 128.982 33.9204C129.238 32.9924 129.51 32.3684 129.798 32.0484C130.134 31.6804 130.79 31.3684 131.766 31.1124C132.758 30.8564 133.782 30.7284 134.838 30.7284C135.942 30.7284 137.054 30.8244 138.174 31.0164C138.142 31.4164 138.086 31.8884 138.006 32.4324C137.942 32.9604 137.87 33.4324 137.79 33.8484C136.798 33.7844 135.862 33.7524 134.982 33.7524C134.118 33.7524 133.566 33.8004 133.326 33.8964C133.198 33.9444 133.078 34.2724 132.966 34.8804C132.87 35.4884 132.822 36.0564 132.822 36.5844C132.822 37.2884 132.918 37.8324 133.11 38.2164C133.318 38.5844 133.638 38.8404 134.07 38.9844C134.502 39.1284 135.086 39.2004 135.822 39.2004C136.142 39.2004 136.846 39.1684 137.934 39.1044L138.294 41.6484ZM150.83 31.6404C150.974 31.8164 151.078 32.2564 151.142 32.9604C151.222 33.6644 151.262 34.7364 151.262 36.1764V41.9844H147.158V36.2244C147.158 36.1604 147.158 35.8484 147.158 35.2884C147.158 34.7124 147.118 34.3604 147.038 34.2324C146.99 34.1684 146.87 34.1204 146.678 34.0884C146.502 34.0564 146.294 34.0404 146.054 34.0404L145.646 34.0644C145.198 34.0804 144.734 34.1844 144.254 34.3764V41.9844H140.15V27.5844L144.254 27.4164V30.2244C144.254 31.3764 144.214 32.1444 144.134 32.5284L144.158 32.5524C145.246 31.3204 146.55 30.7044 148.07 30.7044C148.646 30.7044 149.182 30.7844 149.678 30.9444C150.19 31.1044 150.574 31.3364 150.83 31.6404Z" fill="white"/>
<g clip-path="url(#clip0_4033_24530)">
<path d="M19.7419 16.3022L0 0V8.1518L19.7419 24.2547V16.3022Z" fill="#11ABEC"/>
<path d="M19.7421 27.5199V28.0928V32.8043V43.9726H6.625V29.2609V28.0928V25.3843V24.0169V22.1044V21.6067V16.6875L19.7421 27.5199Z" fill="#ADDEF9"/>
<path d="M13.1796 30.3245V30.7176V35.609V43.9713H0.0625V31.4634V30.7176V26.5748V25.797V24.9091V24.654V19.4922L6.62107 24.9091L13.1796 30.3245Z" fill="#11ABEC"/>
</g>
<defs>
<clipPath id="clip0_4033_24530">
<rect width="19.7419" height="43.9707" fill="white"/>
</clipPath>
</defs>
</svg>
